<?xml version="1.0" ?><svg enable-background="new 0 0 330 345.7865" id="Layer_1" version="1.1" viewBox="0 0 330 345.7865" xml:space="preserve" xmlns="http://www.w3.org/2000/svg" xmlns:xlink="http://www.w3.org/1999/xlink"><g><circle cx="165" cy="165" fill="#AFB0CC" r="165"/><path d="M86.5066,66.8416c-1.1279-3.2471-4.1895-5.4004-7.5684-5.4004c-0.2002,0-0.4053,0.0098-0.6055,0.0244   c-2.5586,0.1953-4.9707,0.9912-6.5381,1.626c-2.0264,0.8154-3.3984,2.7441-3.501,4.9072   c-0.2588,5.6396,2.0996,12.8857,2.9395,13.7402c1.5723,0.6885,13.6621-1.8457,17.1143-3.4424   C88.9284,77.9011,88.9968,74.0144,86.5066,66.8416z" fill="#FFFFFF"/><path d="M211.719,79.8774c1.7596,0.6018,6.037,2.2083,8.9655,4.5374   c5.9015-14.7876,11.0187-28.2867,14.3408-38.0975c-1.9812-0.3528-4.4781-1.087-5.3595-2.796   c-1.5625-3.0322,2.7393-12.041,3.9795-13.9062c0.2545-0.3833,0.6433-0.5115,0.9705-0.7648   c-0.4352,0.1532-0.8032,0.3082-1.0956,0.4669C228.4273,39.9147,219.6328,60.7094,211.719,79.8774z" fill="#FFFFFF"/><path d="M222.5844,120.6611c-4.0723-0.3265-7.077-2.2028-8.5632-3.4436l1.2793-1.5332   c1.6498,1.3678,4.4104,2.9114,7.9523,3.0261c0.8545-2.4884,1.6272-4.5801,2.2705-6.0699c-1.4825-2.7728-5.52-4.3213-7.2833-4.8566   l0.5859-1.9141c2.1814,0.6641,5.6488,2.1448,7.6831,4.7107c3.2574-5.6256,8.6627-18.927,12.1039-29.4989   c-1.1682-0.0708-3.7201-0.4224-4.9042-2.2821c-1.6406-2.5635,1.3965-10.8154,2.3389-12.5537   c0.2484-0.4608,0.5914-0.7562,0.9326-1.0498c-0.5157,0.0208-0.9625-0.1007-1.5039,0.0098   c-1.1603,0.2313-2.4731,0.7227-3.5742,1.4813c-8.1244,21.5295-18.5468,46.3129-23.2715,57.4005l-3.6816-1.5723   c3.5437-8.3142,7.0984-16.8353,10.5157-25.1929c-4.2059-0.8545-7.5763-3.0682-9.1156-4.3671   c-3.0493,7.467-5.7568,14.1614-7.7234,19.0668l-3.7109-1.4844c0.5353-1.3367,5.8679-14.6234,12.4524-30.6073   c-7.5739-1.0449-12.4078-7.6758-12.6282-7.9865l1.6357-1.1523c0.0507,0.0696,4.7754,6.5277,11.7859,7.2168   c1.6425-3.9801,3.3337-8.0573,5.061-12.1887c-5.6549-6.6913-13.175-5.7452-13.2581-5.7312l-0.2979-1.9824   c0.3821-0.022,8.1805-1.0321,14.4196,5.6555c6.5234-15.5591,13.1073-30.7776,17.0599-38.6121   c-1.5302-0.5951-3.8385-1.7969-4.5459-3.9966c-1.1426-3.5498,5.3125-12.8223,6.9727-14.5947   c0.3137-0.3357,0.6775-0.3931,1.0175-0.6049c-6.792-1.0333-12.2821,5.3101-13.7067,7.1716   c0.0995,4.0411-1.9312,10.0366-9.2102,18.9313c-14.6338,17.8906-33.5352,71.333-33.7256,71.8701l-3.7695-1.3281   c0.3754-1.0675,4.8694-13.7445,11.0889-28.6475c-5.4565-1.4362-11.8274-6.6577-12.1436-6.9189l1.5332-1.8457   c2.0471,1.6907,7.5342,5.5371,11.5991,6.402c1.0266-2.4261,2.1021-4.8926,3.2031-7.3712   c-3.1573-3.5834-8.9441-4.2316-9.0112-4.2358l0.2295-2.3926c0.2832,0.0293,6.0089,0.647,9.8444,4.2548   c0.3479-0.7703,0.6915-1.5363,1.0449-2.3041c-4.8889-5.0372-13.0908-5.2515-13.1744-5.2515l0.0195-2.4023   c0.3833,0.0043,8.6383,0.2032,14.2377,5.3491c5.1471-10.9698,10.7379-21.3617,15.9283-27.7075   c0.0287-0.0348,0.0452-0.0616,0.0732-0.0964c-1.5277-0.5872-3.877-1.795-4.5947-4.0198   c-1.1426-3.5498,5.3125-12.8223,6.9727-14.5947c1.1127-1.1847,2.3981-1.4148,3.6023-1.3904   c-1.4325-0.7233-3.4363-0.9735-5.8533-0.5823c-8.96,1.4551-30.7178,19.7461-40.6152,39.541   c-1.3916,2.7881-3.2666,6.6357-5.4785,11.1865c-23.1982,47.6855-39.1602,77.7197-47.0312,80.1123   c-1.4014,0.4199-2.4316,0.0781-3.0518-0.2881c-5.8789-3.4326-10.9375-25.332-16.9434-53.6084   c-1.875-8.8184-3.4912-16.4355-4.5654-19.6484c-0.9552-2.8479-2.6099-4.8376-4.5923-6.3959l-5.3046-2.6331   c-3.3698-0.6232-7.2809-0.1343-11.1676,1.4557c-7.8174,3.2129-5.4248,17.6611-3.8379,27.2217   c0.4932,2.9541,0.9131,5.5029,0.9912,7.3779c0.3174,7.5928,10.1953,77.7344,14.6191,93.0371   c4.165,14.4287,17.7441,38.3545,27.6562,45.708l2.7832,2.0654c5.2441,3.8916,9.6875,8.6475,13.2031,14.1309   c13.2324,20.6445,45.376,71.2256,58.0615,95.0146l-0.3265,0.1746c9.975,2.1075,57.7069,10.0793,91.6766-20.7831   c-8.0774-9.3146-78.8513-91.7065-75.2612-113.2391C202.5118,191.7665,215.2926,142.6271,222.5844,120.6611z M219.5583,110.1667   c0.1025,0.0195,2.5,0.5957,4.5801,2.4805l-1.3477,1.4844c-1.6797-1.5283-3.667-2.0166-3.6865-2.0215L219.5583,110.1667z    M211.5066,67.7595l-1.5918,1.2109c-2.876-3.7793-9.1064-3.623-9.1748-3.623l-0.0635-2.0019   C201.0232,63.3259,208.0056,63.155,211.5066,67.7595z M65.9011,67.8914c0.1416-3.1055,2.1045-5.8594,4.9951-7.0264   c1.7285-0.6982,4.3848-1.5723,7.251-1.792c4.8438-0.3564,9.0771,2.5146,10.625,6.9775c1.6406,4.7314,3.9014,12.8906,0.5811,14.4238   c-1.8164,0.8398-11.748,3.6816-16.9189,3.6816c-1.2793,0-2.2705-0.1758-2.7686-0.5957   C67.9568,82.115,65.6374,73.4578,65.9011,67.8914z M72.0046,101.3386c0.2832-0.249,7.0508-6.1279,19.8926-4.1504l-0.3711,2.373   c-11.6309-1.8213-17.8613,3.5156-17.9248,3.5693L72.0046,101.3386z M86.8484,101.739l-0.2539,2.3828   c-4.2627-0.4492-7.3242,1.543-7.3486,1.5625l-1.3281-1.9971C78.0691,103.5847,81.7214,101.1677,86.8484,101.739z M78.5183,112.3787   c-2.3926,0-4.0234-0.2393-4.1943-0.2637l0.3613-2.373c0.1123,0.0098,10.7129,1.5625,17.9834-3.7109l1.4062,1.9434   C88.9724,111.6755,82.6198,112.3787,78.5183,112.3787z" fill="#FFFFFF"/><path d="M210.9524,81.7311c-1.3092,3.1769-2.5745,6.2604-3.8019,9.2621c0.8075,0.7483,4.3695,3.6316,9.0778,4.4562   c1.2439-3.053,2.4658-6.0724,3.6591-9.0509C217.2445,84.0339,212.6143,82.2957,210.9524,81.7311z M211.6872,86.9783l0.1709-1.9922   c0.1562,0.0146,3.8281,0.3516,6.4307,2.8125l-1.377,1.4551C214.8269,87.281,211.7214,86.9832,211.6872,86.9783z" fill="#FFFFFF"/><path d="M63.1862,93.3308c0.3174,7.6709,10.3027,78.5156,14.7656,93.9844c4.3652,15.1025,18.3252,39.7998,29.1211,47.8076   l2.7832,2.0654c4.8535,3.6035,8.9648,8.0029,12.2168,13.0762c13.2031,20.6006,45.2832,71.0791,57.9053,94.7412l3.1989-1.7102   l0.3265-0.1746c-12.6855-23.7891-44.8291-74.3701-58.0615-95.0146c-3.5156-5.4834-7.959-10.2393-13.2031-14.1309l-2.7832-2.0654   c-9.9121-7.3535-23.4912-31.2793-27.6562-45.708c-4.4238-15.3027-14.3018-85.4443-14.6191-93.0371   c-0.0781-1.875-0.498-4.4238-0.9912-7.3779c-1.5869-9.5605-3.9795-24.0088,3.8379-27.2217   c3.8867-1.59,7.7979-2.0789,11.1676-1.4557c1.1005,0.2032,2.146,0.52,3.1097,0.9625c0.8563,0.3918,1.4716,1.1017,2.1948,1.6705   c1.9824,1.5582,3.6371,3.548,4.5923,6.3959c1.0742,3.2129,2.6904,10.8301,4.5654,19.6484   c6.0059,28.2764,11.0645,50.1758,16.9434,53.6084c0.6201,0.3662,1.6504,0.708,3.0518,0.2881   c7.8711-2.3926,23.833-32.4268,47.0312-80.1123c2.2119-4.5508,4.0869-8.3984,5.4785-11.1865   c9.8975-19.7949,31.6553-38.0859,40.6152-39.541c2.417-0.3912,4.4208-0.141,5.8533,0.5823   c-1.2042-0.0244-2.4896,0.2057-3.6023,1.3904c-1.6602,1.7725-8.1152,11.0449-6.9727,14.5947   c0.7178,2.2247,3.067,3.4326,4.5947,4.0198c-0.0281,0.0348-0.0446,0.0616-0.0732,0.0964   c-5.1904,6.3458-10.7812,16.7377-15.9283,27.7075c-5.5994-5.1459-13.8544-5.3448-14.2377-5.3491l-0.0195,2.4023   c0.0836,0,8.2855,0.2142,13.1744,5.2515c-0.3534,0.7678-0.697,1.5338-1.0449,2.3041c-3.8354-3.6078-9.5612-4.2255-9.8444-4.2548   l-0.2295,2.3926c0.0671,0.0043,5.8539,0.6525,9.0112,4.2358c-1.1011,2.4786-2.1765,4.9451-3.2031,7.3712   c-4.0649-0.8649-9.552-4.7113-11.5991-6.402l-1.5332,1.8457c0.3162,0.2612,6.687,5.4828,12.1436,6.9189   c-6.2195,14.903-10.7135,27.58-11.0889,28.6475l3.7695,1.3281c0.1904-0.5371,19.0918-53.9795,33.7256-71.8701   c7.2791-8.8947,9.3097-14.8901,9.2102-18.9313c1.4246-1.8616,6.9147-8.205,13.7067-7.1716   c-0.34,0.2118-0.7037,0.2692-1.0175,0.6049c-1.6602,1.7725-8.1152,11.0449-6.9727,14.5947   c0.7074,2.1997,3.0157,3.4015,4.5459,3.9966c-3.9526,7.8345-10.5365,23.053-17.0599,38.6121   c-6.239-6.6876-14.0375-5.6775-14.4196-5.6555l0.2979,1.9824c0.083-0.014,7.6031-0.9601,13.2581,5.7312   c-1.7273,4.1315-3.4186,8.2086-5.061,12.1887c-7.0105-0.6891-11.7352-7.1472-11.7859-7.2168l-1.6357,1.1523   c0.2203,0.3107,5.0543,6.9415,12.6282,7.9865c-6.5845,15.9839-11.9171,29.2706-12.4524,30.6073l3.7109,1.4844   c1.9666-4.9054,4.6741-11.5997,7.7234-19.0668c1.5393,1.2988,4.9097,3.5126,9.1156,4.3671   c-3.4174,8.3575-6.972,16.8787-10.5157,25.1929l3.6816,1.5723c4.7247-11.0876,15.1471-35.871,23.2715-57.4005   c1.1011-0.7587,2.4139-1.25,3.5742-1.4813c0.5414-0.1105,0.9882,0.011,1.5039-0.0098c-0.3412,0.2936-0.6842,0.589-0.9326,1.0498   c-0.9424,1.7383-3.9795,9.9902-2.3389,12.5537c1.1841,1.8597,3.736,2.2113,4.9042,2.2821   c-3.4412,10.5719-8.8464,23.8733-12.1039,29.4989c-2.0343-2.5659-5.5017-4.0466-7.6831-4.7107l-0.5859,1.9141   c1.7633,0.5353,5.8008,2.0837,7.2833,4.8566c-0.6433,1.4899-1.416,3.5815-2.2705,6.0699   c-3.5419-0.1147-6.3025-1.6583-7.9523-3.0261l-1.2793,1.5332c1.4862,1.2408,4.491,3.1171,8.5632,3.4436   c-7.2919,21.9659-20.0726,71.1053-22.9919,88.6121c-3.5901,21.5326,67.1838,103.9246,75.2612,113.2391   c0.3046,0.351,0.7141,0.8246,0.8325,0.9601l1.8066-1.5723c-0.791-0.9082-79.0723-90.9961-75.5371-112.2363   c3.7646-22.5488,22.1387-90.1709,26.5723-97.7783c2.829-4.8474,10.8435-23.5345,14.1064-35.9222   c1.1316-2.619,2.1228-5.8557,1.543-8.3551c-0.0366-0.1581-0.1337-0.2679-0.1813-0.4169c-0.0555-0.8679-0.1898-1.6101-0.5121-2.0441   c-1.582-2.1387-4.8389-2.998-8.4717-2.2998c-0.6134,0.1221-1.2488,0.34-1.8787,0.5688c3.1128-8.3679,5.7501-15.9943,7.5116-22.0111   c0.7697-2.0032,1.463-4.3927,1.7456-6.7065c0.5328-2.6172,0.6738-4.494,0.2972-5.3668c-1.3086-3.0469-3.2959-4.165-4.7314-4.5605   c-0.7056-0.1953-1.3898-0.1813-2.0636-0.1556c0.4803-0.8691,0.8936-1.5576,1.1993-1.9537   c3.9111-5.0635,7.6953-10.8545,6.0938-15.4199c-0.8838-2.5049-3.1934-4.2236-6.875-5.1123   c-7.619-1.8567-13.6505,3.0652-16.7755,6.4258c-2.0593-3.1464-6.1554-4.5215-11.4032-3.6572   C197.0144,6.7,174.7341,26.2996,164.5876,46.5974c-1.4014,2.7979-3.2812,6.6602-5.498,11.2207   c-9.3359,19.1797-37.7295,77.5488-44.4727,78.1201c-4.8145-2.8076-11.4697-34.1455-15.0488-50.9814   c-1.9775-9.3115-3.54-16.6602-4.6875-20.0879c-1.6406-4.9072-4.7217-8.5156-8.9111-10.4346   c-4.9365-2.2559-11.2891-2.0996-17.4609,0.4297c-10.7666,4.4238-8.0566,20.7666-6.2646,31.5771   C62.7126,89.2634,63.1179,91.7048,63.1862,93.3308z M209.9441,27.3689c-1.1914-0.4102-3.1689-1.3477-3.6035-2.6904   c-0.5615-1.7529,3.9502-9.5654,6.4355-12.2217c0.5273-0.5615,1.1865-0.7471,1.8262-0.7471c0.9961,0,1.9434,0.4492,2.2949,0.6299   c0.6006,0.6885,0.874,1.5137,0.8496,2.5293C217.6247,19.0046,212.4685,24.8933,209.9441,27.3689z M239.7097,30.3084   c1.582,3.4082-1.2598,10.5615-2.9004,13.877c-2.0215-0.2197-4.5508-0.8691-5.0049-1.7578   c-0.6836-1.3281,1.8994-8.5645,3.8428-11.4844c0.4395-0.6592,1.3379-0.8594,2.2412-0.8594   C238.5573,30.0837,239.2263,30.1912,239.7097,30.3084z M233.6452,29.615c-1.2402,1.8652-5.542,10.874-3.9795,13.9062   c0.8813,1.709,3.3783,2.4432,5.3595,2.796c-3.3221,9.8108-8.4393,23.3099-14.3408,38.0975   c-2.9285-2.3291-7.2058-3.9355-8.9655-4.5374c7.9138-19.1681,16.7084-39.9628,21.8011-50.5603   c0.2924-0.1587,0.6604-0.3137,1.0956-0.4669C234.2885,29.1035,233.8997,29.2317,233.6452,29.615z M237.1462,7.4519   c0.9961,0,1.9434,0.4492,2.2949,0.6299c0.6006,0.6885,0.874,1.5137,0.8496,2.5293c-0.1221,4.1357-5.2783,10.0195-7.8027,12.5   c-1.1914-0.415-3.1738-1.3574-3.6035-2.6904c-0.5615-1.7529,3.9502-9.5654,6.4355-12.2217   C235.8474,7.6375,236.5066,7.4519,237.1462,7.4519z M207.1505,90.9932c1.2274-3.0017,2.4927-6.0852,3.8019-9.2621   c1.662,0.5646,6.2921,2.3029,8.9349,4.6674c-1.1932,2.9785-2.4152,5.9979-3.6591,9.0509   C211.52,94.6248,207.958,91.7415,207.1505,90.9932z M235.7302,77.5105c-0.6445-1.0791,1.04-7.5586,2.4268-10.1221   c0.3809-0.7031,1.1572-0.8691,1.8066-0.8691c0.3809,0,0.7178,0.0586,0.9033,0.0977c0.498,0.3516,0.8154,0.8545,0.9717,1.5283   c0.6885,2.9688-1.8555,8.1445-3.2617,10.5322C237.6443,78.5847,236.2234,78.2869,235.7302,77.5105z"/><path d="M216.8972,12.3396c-0.3516-0.1807-1.2988-0.6299-2.2949-0.6299c-0.6396,0-1.2988,0.1855-1.8262,0.7471   c-2.4854,2.6562-6.9971,10.4688-6.4355,12.2217c0.4346,1.3428,2.4121,2.2803,3.6035,2.6904   c2.5244-2.4756,7.6807-8.3643,7.8027-12.5C217.7712,13.8533,217.4978,13.0281,216.8972,12.3396z" fill="#FFFFFF"/><path d="M232.488,23.1111c2.5244-2.4805,7.6807-8.3643,7.8027-12.5c0.0244-1.0156-0.249-1.8408-0.8496-2.5293   c-0.3516-0.1807-1.2988-0.6299-2.2949-0.6299c-0.6396,0-1.2988,0.1855-1.8262,0.7471c-2.4854,2.6562-6.9971,10.4688-6.4355,12.2217   C229.3142,21.7537,231.2966,22.696,232.488,23.1111z" fill="#FFFFFF"/><path d="M231.8044,42.4275c0.4541,0.8887,2.9834,1.5381,5.0049,1.7578c1.6406-3.3154,4.4824-10.4688,2.9004-13.877   c-0.4834-0.1172-1.1523-0.2246-1.8213-0.2246c-0.9033,0-1.8018,0.2002-2.2412,0.8594   C233.7038,33.863,231.1208,41.0994,231.8044,42.4275z" fill="#FFFFFF"/><path d="M241.8386,68.1453c-0.1562-0.6738-0.4736-1.1768-0.9717-1.5283c-0.1855-0.0391-0.5225-0.0977-0.9033-0.0977   c-0.6494,0-1.4258,0.166-1.8066,0.8691c-1.3867,2.5635-3.0713,9.043-2.4268,10.1221c0.4932,0.7764,1.9141,1.0742,2.8467,1.167   C239.9831,76.2898,242.5271,71.114,241.8386,68.1453z" fill="#FFFFFF"/><path d="M89.3532,80.4744c3.3203-1.5332,1.0596-9.6924-0.5811-14.4238c-1.5479-4.4629-5.7812-7.334-10.625-6.9775   c-2.8662,0.2197-5.5225,1.0938-7.251,1.792c-2.8906,1.167-4.8535,3.9209-4.9951,7.0264   c-0.2637,5.5664,2.0557,14.2236,3.7646,15.6689c0.498,0.4199,1.4893,0.5957,2.7686,0.5957   C77.6052,84.156,87.5368,81.3142,89.3532,80.4744z M71.2331,81.739c-0.8398-0.8545-3.1982-8.1006-2.9395-13.7402   c0.1025-2.1631,1.4746-4.0918,3.501-4.9072c1.5674-0.6348,3.9795-1.4307,6.5381-1.626c0.2002-0.0146,0.4053-0.0244,0.6055-0.0244   c3.3789,0,6.4404,2.1533,7.5684,5.4004c2.4902,7.1729,2.4219,11.0596,1.8408,11.4551   C84.8952,79.8933,72.8054,82.4275,71.2331,81.739z"/><path d="M209.9148,68.9705l1.5918-1.2109c-3.501-4.6045-10.4834-4.4336-10.8301-4.4141l0.0635,2.0019   C200.8083,65.3474,207.0388,65.1912,209.9148,68.9705z"/><path d="M211.8581,84.9861l-0.1709,1.9922c0.0342,0.0049,3.1396,0.3027,5.2246,2.2754l1.377-1.4551   C215.6862,85.3376,212.0144,85.0007,211.8581,84.9861z"/><path d="M224.1384,112.6472c-2.0801-1.8848-4.4775-2.4609-4.5801-2.4805l-0.4541,1.9434c0.0195,0.0049,2.0068,0.4932,3.6865,2.0215   L224.1384,112.6472z"/><path d="M91.5261,99.5613l0.3711-2.373c-12.8418-1.9775-19.6094,3.9014-19.8926,4.1504l1.5967,1.792   C73.6648,103.0769,79.8952,97.74,91.5261,99.5613z"/><path d="M86.5945,104.1218l0.2539-2.3828c-5.127-0.5713-8.7793,1.8457-8.9307,1.9482l1.3281,1.9971   C79.2702,105.6648,82.3318,103.6726,86.5945,104.1218z"/><path d="M74.6853,109.7419l-0.3613,2.373c0.1709,0.0244,1.8018,0.2637,4.1943,0.2637c4.1016,0,10.4541-0.7031,15.5566-4.4043   l-1.4062-1.9434C85.3982,111.3044,74.7976,109.7517,74.6853,109.7419z"/></g></svg>